<svg width="1.25em" height="1.25em" viewBox="0 0 25 25" fill="none" xmlns="http://www.w3.org/2000/svg">
<path fill-rule="evenodd" clip-rule="evenodd" d="M15.0742 5.75388C15.0742 3.82089 13.5072 2.25391 11.5742 2.25391L11.3822 2.25906C9.53847 2.35877 8.07419 3.88534 8.07419 5.75388C8.07419 7.68691 9.64122 9.25389 11.5742 9.25389L11.7662 9.24869C13.6099 9.14903 15.0742 7.62245 15.0742 5.75388ZM12.5742 17.2539C12.5742 18.3467 12.8664 19.3714 13.3769 20.2539H4.57422V16.6539C4.57422 13.7461 6.80866 11.3751 9.6078 11.2584L9.82417 11.2539H13.3242C14.2352 11.2539 15.0919 11.4925 15.8387 11.9124C13.9004 12.907 12.5742 14.9256 12.5742 17.2539ZM15.6353 21.299L18.5742 19.5039L21.5131 21.299L20.7141 17.9492L23.3295 15.7088L19.8967 15.4336L18.5742 12.2539L17.2517 15.4336L13.8189 15.7088L16.4343 17.9492L15.6353 21.299Z" fill="black"/>
</svg>
