<svg width="1.25em" height="1.25em" viewBox="0 0 25 24" fill="none" xmlns="http://www.w3.org/2000/svg">
<path d="M23.988 10.1618L13.988 0.561903C13.6129 0.20211 13.1044 0 12.5742 0C12.044 0 11.5355 0.20211 11.1605 0.561903L1.16048 10.1618C0.973861 10.3396 0.825929 10.5513 0.725286 10.7845C0.624642 11.0177 0.573295 11.2677 0.574231 11.5202V23.04C0.574231 23.2946 0.679588 23.5388 0.867124 23.7188C1.05466 23.8989 1.30901 24 1.57423 24H9.57422C9.83944 24 10.0938 23.8989 10.2813 23.7188C10.4689 23.5388 10.5742 23.2946 10.5742 23.04V16.3201H14.5742V23.04C14.5742 23.2946 14.6796 23.5388 14.8671 23.7188C15.0546 23.8989 15.309 24 15.5742 24H23.5742C23.8394 24 24.0938 23.8989 24.2813 23.7188C24.4689 23.5388 24.5742 23.2946 24.5742 23.04V11.5202C24.5751 11.2677 24.5238 11.0177 24.4232 10.7845C24.3225 10.5513 24.1746 10.3396 23.988 10.1618ZM22.5742 22.08H16.5742V15.3601C16.5742 15.1055 16.4689 14.8613 16.2813 14.6813C16.0938 14.5013 15.8394 14.4001 15.5742 14.4001H9.57422C9.30901 14.4001 9.05465 14.5013 8.86712 14.6813C8.67958 14.8613 8.57422 15.1055 8.57422 15.3601V22.08H2.57423V11.5202L12.5742 1.92029L22.5742 11.5202V22.08Z" fill="black"/>
</svg>
