<svg width="1.25em" height="1.25em" viewBox="0 0 25 25" fill="none" xmlns="http://www.w3.org/2000/svg">
<path d="M24.4692 5.3025L22.4692 1.3025C22.3861 1.13636 22.2583 0.996665 22.1002 0.899077C21.9421 0.801489 21.76 0.749867 21.5742 0.75H3.57422C3.38844 0.749867 3.2063 0.801489 3.04821 0.899077C2.89013 0.996665 2.76235 1.13636 2.67922 1.3025L0.679219 5.3025C0.61029 5.44161 0.574359 5.59475 0.574219 5.75V22.75C0.574219 23.2804 0.784932 23.7891 1.16001 24.1642C1.53508 24.5393 2.04379 24.75 2.57422 24.75H22.5742C23.1047 24.75 23.6134 24.5393 23.9884 24.1642C24.3635 23.7891 24.5742 23.2804 24.5742 22.75V5.75C24.5741 5.59475 24.5381 5.44161 24.4692 5.3025ZM4.19172 2.75H20.9567L21.9567 4.75H3.19172L4.19172 2.75ZM22.5742 22.75H2.57422V6.75H22.5742V22.75ZM17.2817 13.0425C17.3746 13.1354 17.4483 13.2457 17.4986 13.3671C17.5489 13.4885 17.5748 13.6186 17.5748 13.75C17.5748 13.8814 17.5489 14.0115 17.4986 14.1329C17.4483 14.2543 17.3746 14.3646 17.2817 14.4575C17.1888 14.5504 17.0785 14.6241 16.9571 14.6744C16.8357 14.7247 16.7056 14.7506 16.5742 14.7506C16.4428 14.7506 16.3127 14.7247 16.1913 14.6744C16.0699 14.6241 15.9596 14.5504 15.8667 14.4575L13.5742 12.1637V19.75C13.5742 20.0152 13.4689 20.2696 13.2813 20.4571C13.0938 20.6446 12.8394 20.75 12.5742 20.75C12.309 20.75 12.0546 20.6446 11.8671 20.4571C11.6796 20.2696 11.5742 20.0152 11.5742 19.75V12.1637L9.28172 14.4575C9.18881 14.5504 9.07851 14.6241 8.95712 14.6744C8.83572 14.7247 8.70561 14.7506 8.57422 14.7506C8.44282 14.7506 8.31272 14.7247 8.19132 14.6744C8.06993 14.6241 7.95963 14.5504 7.86672 14.4575C7.77381 14.3646 7.70011 14.2543 7.64983 14.1329C7.59954 14.0115 7.57366 13.8814 7.57366 13.75C7.57366 13.6186 7.59954 13.4885 7.64983 13.3671C7.70011 13.2457 7.77381 13.1354 7.86672 13.0425L11.8667 9.0425C11.9596 8.94952 12.0699 8.87576 12.1913 8.82544C12.3127 8.77512 12.4428 8.74921 12.5742 8.74921C12.7056 8.74921 12.8358 8.77512 12.9572 8.82544C13.0786 8.87576 13.1888 8.94952 13.2817 9.0425L17.2817 13.0425Z" fill="#333333"/>
</svg>
