<svg width="1.25em" height="1.25em" viewBox="0 0 25 25" fill="none" xmlns="http://www.w3.org/2000/svg">
<path d="M21.0729 4.25917C20.1102 3.29662 18.8047 2.75586 17.4434 2.75586C16.0821 2.75586 14.7765 3.29662 13.8139 4.25917L4.03181 14.04C3.08934 15.0067 2.5657 16.3058 2.57432 17.6558C2.58294 19.0059 3.12313 20.2982 4.07786 21.2527C5.03259 22.2073 6.32499 22.7473 7.67507 22.7558C9.02514 22.7642 10.3242 22.2404 11.2908 21.2978L21.0738 11.517C22.0348 10.5537 22.5744 9.24853 22.5742 7.88788C22.574 6.52723 22.0341 5.22221 21.0729 4.25917ZM10.2008 20.2079C9.52739 20.8814 8.61404 21.2598 7.66164 21.2599C6.70923 21.26 5.79581 20.8817 5.12229 20.2083C4.44878 19.535 4.07035 18.6216 4.07026 17.6693C4.07017 16.7169 4.44843 15.8035 5.12181 15.13L9.46736 10.7846L14.5463 15.8624L10.2008 20.2079ZM19.9829 10.427L15.6354 14.7725L10.5583 9.69458L14.9048 5.34915C15.5809 4.68873 16.4901 4.32145 17.4352 4.32697C18.3803 4.33249 19.2851 4.71037 19.9534 5.37864C20.6216 6.04692 20.9995 6.9517 21.0051 7.89677C21.0106 8.84184 20.6433 9.75098 19.9829 10.427ZM18.4958 8.37813C18.5675 8.44974 18.6243 8.53477 18.6631 8.62836C18.7019 8.72196 18.7219 8.82228 18.7219 8.9236C18.7219 9.02492 18.7019 9.12525 18.6631 9.21884C18.6243 9.31244 18.5675 9.39747 18.4958 9.46907L16.1828 11.782C16.1111 11.8536 16.0261 11.9103 15.9326 11.949C15.839 11.9878 15.7387 12.0077 15.6374 12.0076C15.5362 12.0076 15.4359 11.9876 15.3424 11.9488C15.2488 11.91 15.1639 11.8532 15.0923 11.7815C15.0207 11.7099 14.964 11.6249 14.9253 11.5313C14.8865 11.4377 14.8666 11.3375 14.8667 11.2362C14.8667 11.1349 14.8867 11.0347 14.9255 10.9412C14.9643 10.8476 15.0211 10.7626 15.0928 10.6911L17.4058 8.37813C17.5504 8.23366 17.7464 8.1525 17.9508 8.1525C18.1552 8.1525 18.3512 8.23366 18.4958 8.37813Z" fill="black"/>
</svg>
