<svg width="1.25em" height="1.25em" viewBox="0 0 25 25" fill="none" xmlns="http://www.w3.org/2000/svg">
<g clip-path="url(#clip0_755_819)">
<path d="M24.3649 5.0187C24.2815 4.91886 24.1771 4.83856 24.0593 4.78346C23.9414 4.72836 23.8129 4.69982 23.6828 4.69984H5.76031L5.08483 0.985783C5.04762 0.780991 4.93972 0.595752 4.77994 0.462361C4.62016 0.32897 4.41862 0.255889 4.21048 0.255859H1.46301C1.22729 0.255859 1.00122 0.3495 0.834539 0.516182C0.667859 0.682863 0.574219 0.908932 0.574219 1.14466C0.574219 1.38038 0.667859 1.60645 0.834539 1.77313C1.00122 1.93981 1.22729 2.03345 1.46301 2.03345H3.46279L6.30247 17.6196C6.38612 18.0818 6.5904 18.5138 6.89463 18.8717C6.47473 19.2639 6.17165 19.7647 6.01901 20.3187C5.86637 20.8726 5.87013 21.458 6.02987 22.0099C6.18961 22.5618 6.49909 23.0587 6.92399 23.4455C7.34889 23.8323 7.87261 24.0938 8.43708 24.2011C9.00154 24.3084 9.5847 24.2573 10.1219 24.0534C10.6591 23.8495 11.1293 23.5008 11.4804 23.046C11.8315 22.5912 12.0498 22.048 12.111 21.4767C12.1723 20.9054 12.0741 20.3283 11.8274 19.8094H16.8735C16.6747 20.2257 16.5718 20.6812 16.5724 21.1426C16.5724 21.7578 16.7549 22.3593 17.0967 22.8708C17.4385 23.3824 17.9244 23.7811 18.4928 24.0166C19.0612 24.252 19.6867 24.3136 20.2901 24.1936C20.8935 24.0736 21.4478 23.7773 21.8829 23.3422C22.3179 22.9072 22.6142 22.3529 22.7342 21.7495C22.8542 21.146 22.7926 20.5205 22.5572 19.9521C22.3217 19.3837 21.923 18.8979 21.4115 18.556C20.8999 18.2142 20.2985 18.0318 19.6832 18.0318H8.92551C8.71737 18.0318 8.51584 17.9587 8.35606 17.8253C8.19627 17.6919 8.08837 17.5067 8.05117 17.3019L7.69898 15.3654H20.5864C21.2109 15.3653 21.8155 15.1461 22.2948 14.7459C22.7742 14.3457 23.0979 13.79 23.2095 13.1756L24.5604 5.74751C24.5833 5.61912 24.5777 5.48728 24.5439 5.36132C24.5101 5.23537 24.449 5.11839 24.3649 5.0187ZM10.3509 21.1426C10.3509 21.4063 10.2727 21.664 10.1262 21.8833C9.97974 22.1025 9.77152 22.2734 9.52791 22.3743C9.28431 22.4752 9.01625 22.5016 8.75763 22.4501C8.49902 22.3987 8.26147 22.2717 8.07502 22.0853C7.88857 21.8988 7.7616 21.6613 7.71016 21.4027C7.65872 21.1441 7.68512 20.876 7.78602 20.6324C7.88693 20.3888 8.05781 20.1806 8.27705 20.0341C8.49629 19.8876 8.75405 19.8094 9.01773 19.8094C9.37131 19.8094 9.71041 19.9498 9.96043 20.1999C10.2105 20.4499 10.3509 20.789 10.3509 21.1426ZM21.0164 21.1426C21.0164 21.4063 20.9382 21.664 20.7917 21.8833C20.6452 22.1025 20.437 22.2734 20.1934 22.3743C19.9498 22.4752 19.6817 22.5016 19.4231 22.4501C19.1645 22.3987 18.927 22.2717 18.7405 22.0853C18.5541 21.8988 18.4271 21.6613 18.3756 21.4027C18.3242 21.1441 18.3506 20.876 18.4515 20.6324C18.5524 20.3888 18.7233 20.1806 18.9425 20.0341C19.1618 19.8876 19.4195 19.8094 19.6832 19.8094C20.0368 19.8094 20.3759 19.9498 20.6259 20.1999C20.8759 20.4499 21.0164 20.789 21.0164 21.1426ZM21.4608 12.8579C21.4235 13.0632 21.3151 13.2489 21.1546 13.3824C20.9941 13.5158 20.7918 13.5886 20.5831 13.5878H7.37569L6.08361 6.47743H22.6173L21.4608 12.8579Z" fill="black"/>
</g>
<defs>
<clipPath id="clip0_755_819">
<rect width="24" height="24" fill="white" transform="translate(0.574219 0.255859)"/>
</clipPath>
</defs>
</svg>
