<svg width="1.25em" height="1.25em" viewBox="0 0 25 25" fill="none" xmlns="http://www.w3.org/2000/svg">
<g clip-path="url(#clip0_755_855)">
<path d="M22.0364 0.255859H9.42801C8.02455 0.255859 6.8889 1.33466 6.8889 2.66786V9.43226L0.949159 15.0027C0.771188 15.1699 0.649521 15.3835 0.599598 15.6165C0.549676 15.8495 0.573748 16.0914 0.668761 16.3114C0.763774 16.5313 0.925444 16.7196 1.13325 16.8521C1.34106 16.9847 1.58564 17.0556 1.83595 17.0559V23.0559C1.83595 23.3741 1.96904 23.6793 2.20595 23.9044C2.44285 24.1294 2.76416 24.2559 3.09919 24.2559H23.311C23.646 24.2559 23.9673 24.1294 24.2042 23.9044C24.4411 23.6793 24.5742 23.3741 24.5742 23.0559V2.66666C24.5742 1.33466 23.4398 0.255859 22.0364 0.255859ZM11.8433 15.9891V21.8559H4.36243V15.1743L8.13571 11.6355L11.8433 15.2391V15.9891ZM14.4683 8.65586H11.9418V6.25586H14.4683V8.65586ZM19.5213 18.2559H16.9948V15.8559H19.5213V18.2559ZM19.5213 13.4559H16.9948V11.0559H19.5213V13.4559ZM19.5213 8.65586H16.9948V6.25586H19.5213V8.65586Z" fill="black"/>
<path d="M7.57422 15.2559H9.57422V17.2559H7.57422V15.2559Z" fill="black"/>
</g>
<defs>
<clipPath id="clip0_755_855">
<rect width="24" height="24" fill="white" transform="translate(0.574219 0.255859)"/>
</clipPath>
</defs>
</svg>
