<svg width="1.25em" height="1.25em" viewBox="0 0 25 25" fill="none" xmlns="http://www.w3.org/2000/svg">
<path d="M12.5742 23.7539C7.01722 22.5189 2.57422 17.2759 2.57422 11.7539V5.75391L12.5742 1.75391L22.5742 5.75391V11.7539C22.5742 17.2779 18.1312 22.5189 12.5742 23.7539ZM4.57422 6.75391V11.7539C4.63137 14.066 5.44458 16.2957 6.8894 18.1018C8.33421 19.9078 10.331 21.1906 12.5742 21.7539C14.8174 21.1906 16.8142 19.9078 18.259 18.1018C19.7039 16.2957 20.5171 14.066 20.5742 11.7539V6.75391L12.5742 3.75391L4.57422 6.75391Z" fill="black"/>
<path d="M12.5742 11.7539C13.9549 11.7539 15.0742 10.6346 15.0742 9.25391C15.0742 7.87319 13.9549 6.75391 12.5742 6.75391C11.1935 6.75391 10.0742 7.87319 10.0742 9.25391C10.0742 10.6346 11.1935 11.7539 12.5742 11.7539Z" fill="black"/>
<path d="M7.57422 15.7539C8.06695 16.6522 8.78961 17.4035 9.66819 17.9306C10.5468 18.4578 11.5497 18.7419 12.5742 18.7539C13.5987 18.7419 14.6017 18.4578 15.4802 17.9306C16.3588 17.4035 17.0815 16.6522 17.5742 15.7539C17.5492 13.8579 14.2322 12.7539 12.5742 12.7539C10.9072 12.7539 7.59922 13.8579 7.57422 15.7539Z" fill="black"/>
</svg>
