<svg width="1.25em" height="1.25em" viewBox="0 0 25 25" fill="none" xmlns="http://www.w3.org/2000/svg">
<path d="M24.4692 4.8025L22.4692 0.8025C22.3861 0.636361 22.2583 0.496665 22.1002 0.399077C21.9421 0.301489 21.76 0.249867 21.5742 0.25H3.57422C3.38844 0.249867 3.2063 0.301489 3.04821 0.399077C2.89013 0.496665 2.76235 0.636361 2.67922 0.8025L0.679219 4.8025C0.61029 4.94161 0.574359 5.09475 0.574219 5.25V22.25C0.574219 22.7804 0.784932 23.2891 1.16001 23.6642C1.53508 24.0393 2.04379 24.25 2.57422 24.25H22.5742C23.1047 24.25 23.6134 24.0393 23.9884 23.6642C24.3635 23.2891 24.5742 22.7804 24.5742 22.25V5.25C24.5741 5.09475 24.5381 4.94161 24.4692 4.8025ZM4.19172 2.25H20.9567L21.9567 4.25H3.19172L4.19172 2.25ZM22.5742 22.25H2.57422V6.25H22.5742V22.25ZM17.2817 14.5425C17.3747 14.6354 17.4485 14.7457 17.4988 14.8671C17.5491 14.9885 17.575 15.1186 17.575 15.25C17.575 15.3814 17.5491 15.5115 17.4988 15.6329C17.4485 15.7543 17.3747 15.8646 17.2817 15.9575L13.2817 19.9575C13.1888 20.0505 13.0786 20.1242 12.9572 20.1746C12.8358 20.2249 12.7056 20.2508 12.5742 20.2508C12.4428 20.2508 12.3127 20.2249 12.1913 20.1746C12.0699 20.1242 11.9596 20.0505 11.8667 19.9575L7.86672 15.9575C7.67908 15.7699 7.57366 15.5154 7.57366 15.25C7.57366 14.9846 7.67908 14.7301 7.86672 14.5425C8.05436 14.3549 8.30885 14.2494 8.57422 14.2494C8.83958 14.2494 9.09408 14.3549 9.28172 14.5425L11.5742 16.8363V9.25C11.5742 8.98478 11.6796 8.73043 11.8671 8.54289C12.0546 8.35536 12.309 8.25 12.5742 8.25C12.8394 8.25 13.0938 8.35536 13.2813 8.54289C13.4689 8.73043 13.5742 8.98478 13.5742 9.25V16.8363L15.8667 14.5425C15.9596 14.4495 16.0699 14.3758 16.1913 14.3254C16.3127 14.2751 16.4428 14.2492 16.5742 14.2492C16.7056 14.2492 16.8358 14.2751 16.9572 14.3254C17.0786 14.3758 17.1888 14.4495 17.2817 14.5425Z" fill="#333333"/>
</svg>
