<svg width="1.25em" height="1.25em" viewBox="0 0 25 25" fill="none" xmlns="http://www.w3.org/2000/svg">
<path d="M8.57422 5.75195H6.57422C6.04379 5.75195 5.53508 5.96267 5.16001 6.33774C4.78493 6.71281 4.57422 7.22152 4.57422 7.75195V19.752C4.57422 20.2824 4.78493 20.7911 5.16001 21.1662C5.53508 21.5412 6.04379 21.752 6.57422 21.752H12.2712M18.5742 14.752V18.752H22.5742M18.5742 11.752V7.75195C18.5742 7.22152 18.3635 6.71281 17.9884 6.33774C17.6134 5.96267 17.1047 5.75195 16.5742 5.75195H14.5742" stroke="black" stroke-width="2" stroke-linecap="round" stroke-linejoin="round"/>
<path d="M8.57422 11.752H12.5742M8.57422 15.752H11.5742M8.57422 5.75195C8.57422 5.22152 8.78493 4.71281 9.16001 4.33774C9.53508 3.96267 10.0438 3.75195 10.5742 3.75195H12.5742C13.1047 3.75195 13.6134 3.96267 13.9884 4.33774C14.3635 4.71281 14.5742 5.22152 14.5742 5.75195C14.5742 6.28239 14.3635 6.79109 13.9884 7.16617C13.6134 7.54124 13.1047 7.75195 12.5742 7.75195H10.5742C10.0438 7.75195 9.53508 7.54124 9.16001 7.16617C8.78493 6.79109 8.57422 6.28239 8.57422 5.75195ZM14.5742 18.752C14.5742 19.8128 14.9956 20.8302 15.7458 21.5804C16.4959 22.3305 17.5134 22.752 18.5742 22.752C19.6351 22.752 20.6525 22.3305 21.4026 21.5804C22.1528 20.8302 22.5742 19.8128 22.5742 18.752C22.5742 17.6911 22.1528 16.6737 21.4026 15.9235C20.6525 15.1734 19.6351 14.752 18.5742 14.752C17.5134 14.752 16.4959 15.1734 15.7458 15.9235C14.9956 16.6737 14.5742 17.6911 14.5742 18.752Z" stroke="black" stroke-width="2" stroke-linecap="round" stroke-linejoin="round"/>
</svg>
