<svg width="1.25em" height="1.25em" viewBox="0 0 25 25" fill="none" xmlns="http://www.w3.org/2000/svg">
<path d="M12.5742 11.9707V23.209L11.8242 23.584L2.07422 18.7207V6.5332L11.8242 1.6582L21.5742 6.5332V15.252H20.0742V8.2207L12.5742 11.9707ZM11.8242 3.3457L9 4.75195L16.2773 8.43164L19.1484 7.00195L11.8242 3.3457ZM11.0742 21.5332V11.9707L3.57422 8.2207V17.7832L11.0742 21.5332ZM4.5 7.00195L11.8242 10.6582L14.6133 9.27539L7.32422 5.5957L4.5 7.00195ZM17.0742 21.252V19.752H24.5742V21.252H17.0742ZM17.0742 16.752H24.5742V18.252H17.0742V16.752ZM14.0742 24.252V22.752H15.5742V24.252H14.0742ZM14.0742 18.252V16.752H15.5742V18.252H14.0742ZM14.0742 21.252V19.752H15.5742V21.252H14.0742ZM17.0742 24.252V22.752H24.5742V24.252H17.0742Z" fill="#333333"/>
</svg>
